<?xml version="1.0" encoding="UTF-8" standalone="no"?>
<svg id="f378dfd4-c0d5-442d-8385-e3c8c7fe4ca1" data-name="Calque 1" xmlns="http://www.w3.org/2000/svg" viewBox="0 0 141.73 141.73"><title>5</title><path d="M117,43.51a24.7,24.7,0,0,0-15.37,5.33,24.8,24.8,0,0,0-30.72,0,24.81,24.81,0,0,0-30.73,0,24.78,24.78,0,1,0,0,38.88,24.78,24.78,0,0,0,30.73,0,24.76,24.76,0,0,0,30.72,0A24.78,24.78,0,1,0,117,43.51ZM36.09,83.67a19.1,19.1,0,1,1,0-30.78,24.77,24.77,0,0,0,0,30.78Zm4-4a19.09,19.09,0,0,1,0-22.7,19.09,19.09,0,0,1,0,22.7Zm26.67,4a19.09,19.09,0,0,1-22.62,0,24.77,24.77,0,0,0,0-30.78,19.14,19.14,0,0,1,22.62,0,24.77,24.77,0,0,0,0,30.78Zm4.06-4a19.09,19.09,0,0,1,0-22.7,19.13,19.13,0,0,1,0,22.7Zm26.67,4a19.09,19.09,0,0,1-22.62,0,24.77,24.77,0,0,0,0-30.78,19.14,19.14,0,0,1,22.62,0,24.77,24.77,0,0,0,0,30.78Zm4-4a19.09,19.09,0,0,1,0-22.7,19.09,19.09,0,0,1,0,22.7ZM117,87.38a19.17,19.17,0,0,1-11.31-3.71,24.77,24.77,0,0,0,0-30.78A19.1,19.1,0,1,1,117,87.38Z" style="fill:#1d1d1b;fill-rule:evenodd"/></svg>