<?xml version="1.0" encoding="UTF-8" standalone="no"?>
<svg id="ef64fbe2-e704-4226-b965-110296e808d7" data-name="Calque 1" xmlns="http://www.w3.org/2000/svg" xmlns:xlink="http://www.w3.org/1999/xlink" viewBox="0 0 141.73 141.73"><defs><linearGradient id="b58abc02-1f2a-4f2f-99b4-73a422ef1548" x1="942.22" y1="827.23" x2="1033.46" y2="915.4" gradientTransform="translate(-1563.16 -1370.81) scale(1.65)" gradientUnits="userSpaceOnUse"><stop offset="0" stop-color="#e8f5fd"/><stop offset="0.1" stop-color="#e0eff9"/><stop offset="0.27" stop-color="#cad6e0"/><stop offset="0.49" stop-color="#a0aab1"/><stop offset="0.75" stop-color="#696d71"/><stop offset="1" stop-color="#33302d"/></linearGradient><radialGradient id="b26af118-e3a1-444d-a996-11f14f5777ef" cx="955.94" cy="842.21" r="50.84" gradientTransform="translate(-1893.85 -1662.97) scale(1.98 1.98)" gradientUnits="userSpaceOnUse"><stop offset="0" stop-color="#fff"/><stop offset="0.31" stop-color="#b1aead"/><stop offset="0.65" stop-color="#565251"/><stop offset="0.89" stop-color="#211e1b"/><stop offset="1" stop-color="#12110b"/></radialGradient><linearGradient id="b6a289a2-c949-4cae-8970-778d4c0eecba" x1="3650.03" y1="3612.4" x2="3708.14" y2="3668.56" gradientTransform="translate(6137.86 6074.21) rotate(180) scale(1.65)" gradientUnits="userSpaceOnUse"><stop offset="0" stop-color="#e8f5fd"/><stop offset="0.09" stop-color="#e0eff9"/><stop offset="0.23" stop-color="#c9d6df"/><stop offset="0.42" stop-color="#9ea9b1"/><stop offset="0.65" stop-color="#646b70"/><stop offset="0.91" stop-color="#242321"/><stop offset="1" stop-color="#12110b"/></linearGradient><radialGradient id="bf8e11af-2e66-423e-98b8-9e6e2b1e3ba1" cx="946.81" cy="837.03" r="122.17" gradientTransform="translate(-1893.85 -1662.97) scale(1.98 1.98)" gradientUnits="userSpaceOnUse"><stop offset="0" stop-color="#fff"/><stop offset="0.31" stop-color="#fff"/><stop offset="0.45" stop-color="#f9f9fa"/><stop offset="0.56" stop-color="#eeeff0"/><stop offset="0.65" stop-color="#e0dedf"/><stop offset="0.72" stop-color="#c9c6c5"/><stop offset="0.79" stop-color="#aaa7a6"/><stop offset="0.86" stop-color="#878482"/><stop offset="0.92" stop-color="#5d5a59"/><stop offset="0.97" stop-color="#33302d"/><stop offset="1" stop-color="#201d1a"/></radialGradient><radialGradient id="e75a51b5-10cd-4fca-a35e-648cb93f1f32" cx="946.8" cy="837.03" r="122.19" xlink:href="#bf8e11af-2e66-423e-98b8-9e6e2b1e3ba1"/><radialGradient id="a7849078-32cf-4e7b-b97f-803613590a9b" cx="946.8" cy="837" r="122.27" xlink:href="#bf8e11af-2e66-423e-98b8-9e6e2b1e3ba1"/><radialGradient id="fc2fe221-4dd8-4686-bf13-aff367d629ef" cx="968.68" cy="854.03" r="32.95" gradientTransform="translate(-1893.85 -1662.97) scale(1.98 1.98)" gradientUnits="userSpaceOnUse"><stop offset="0" stop-color="#ecebed"/><stop offset="0.1" stop-color="#dedddd"/><stop offset="0.31" stop-color="#b7b4b4"/><stop offset="0.59" stop-color="#736f6f"/><stop offset="0.93" stop-color="#1f1c19"/><stop offset="1" stop-color="#12110b"/></radialGradient><radialGradient id="f6388d43-8a38-4ade-b87f-ba63a25ec570" cx="977.69" cy="858.46" r="47.92" gradientTransform="translate(-1893.85 -1662.97) scale(1.98 1.98)" gradientUnits="userSpaceOnUse"><stop offset="0" stop-color="#fff"/><stop offset="0.34" stop-color="#fff"/><stop offset="0.48" stop-color="#f9f9fa"/><stop offset="0.58" stop-color="#eff0f1"/><stop offset="0.67" stop-color="#e0dfdf"/><stop offset="0.74" stop-color="#ccc9c9"/><stop offset="0.8" stop-color="#afabaa"/><stop offset="0.86" stop-color="#8c8886"/><stop offset="0.91" stop-color="#666261"/><stop offset="0.95" stop-color="#484442"/><stop offset="0.96" stop-color="#484442"/><stop offset="1" stop-color="#484442"/><stop offset="1" stop-color="#12110b"/></radialGradient><radialGradient id="bed89798-7283-46da-b284-daa79f1aa623" cx="963.63" cy="840.24" r="84.87" gradientTransform="translate(-1893.85 -1662.97) scale(1.98 1.98)" gradientUnits="userSpaceOnUse"><stop offset="0.17" stop-color="#fff"/><stop offset="0.2" stop-color="#e8f3fa"/><stop offset="0.24" stop-color="#c1dff1"/><stop offset="0.29" stop-color="#9ccae6"/><stop offset="0.34" stop-color="#79b8df"/><stop offset="0.38" stop-color="#59a9d6"/><stop offset="0.44" stop-color="#48a0d1"/><stop offset="0.49" stop-color="#3b9acf"/><stop offset="0.56" stop-color="#3698ce"/><stop offset="0.61" stop-color="#3895ca"/><stop offset="0.66" stop-color="#2f8cbe"/><stop offset="0.7" stop-color="#307faa"/><stop offset="0.75" stop-color="#2d6b8d"/><stop offset="0.8" stop-color="#305268"/><stop offset="0.85" stop-color="#323a3f"/><stop offset="0.87" stop-color="#312e2b"/></radialGradient><radialGradient id="fb322aa1-3f19-4c64-aae5-3c78a6a0e72a" cx="963.63" cy="840.24" r="84.87" xlink:href="#bed89798-7283-46da-b284-daa79f1aa623"/><radialGradient id="ac52141e-b000-4cba-a940-46c67160dc95" cx="969.14" cy="854.39" r="32.32" xlink:href="#fc2fe221-4dd8-4686-bf13-aff367d629ef"/><linearGradient id="e27650d2-2803-43da-aadc-462ef489c4ce" x1="986.43" y1="839.64" x2="1024.3" y2="876.24" gradientTransform="translate(-1563.16 -1370.81) scale(1.65)" gradientUnits="userSpaceOnUse"><stop offset="0" stop-color="#f6f8fc"/><stop offset="0.11" stop-color="#f1f4fb"/><stop offset="0.25" stop-color="#e4e6f0"/><stop offset="0.4" stop-color="#cdcdd5"/><stop offset="0.57" stop-color="#aaa9af"/><stop offset="0.75" stop-color="#7d7b7f"/><stop offset="0.93" stop-color="#494646"/><stop offset="1" stop-color="#33302d"/></linearGradient><linearGradient id="e6aa9332-780e-44a8-8143-f65294f3e0e7" x1="955.69" y1="870.55" x2="993.56" y2="907.14" xlink:href="#e27650d2-2803-43da-aadc-462ef489c4ce"/><linearGradient id="b7bb69aa-ffc6-4d8e-b77d-5beadd6718ee" x1="974.01" y1="857.49" x2="993.65" y2="876.47" gradientTransform="translate(-1563.16 -1370.81) scale(1.65)" gradientUnits="userSpaceOnUse"><stop offset="0" stop-color="#cedeee"/><stop offset="0.13" stop-color="#c6d5e6"/><stop offset="0.34" stop-color="#afc1d4"/><stop offset="0.6" stop-color="#869cb0"/><stop offset="0.89" stop-color="#516a80"/><stop offset="1" stop-color="#3e546d"/></linearGradient><linearGradient id="f7ebdd19-23d5-4eeb-8eba-cc10506c11f1" x1="964.17" y1="862.14" x2="1001.67" y2="898.37" gradientTransform="translate(-1563.16 -1370.81) scale(1.65)" gradientUnits="userSpaceOnUse"><stop offset="0" stop-color="#f6f8fc"/><stop offset="0.1" stop-color="#eef0f9"/><stop offset="0.26" stop-color="#dadce5"/><stop offset="0.46" stop-color="#b5b5bc"/><stop offset="0.7" stop-color="#807e80"/><stop offset="0.96" stop-color="#3f3b39"/><stop offset="1" stop-color="#33302d"/></linearGradient><linearGradient id="b5481da4-b923-424a-8bca-bea9ecf74f48" x1="991.81" y1="875.58" x2="1004.96" y2="888.29" gradientTransform="translate(-1563.16 -1370.81) scale(1.65)" gradientUnits="userSpaceOnUse"><stop offset="0" stop-color="#e2e5f4"/><stop offset="0.12" stop-color="#dde2f1"/><stop offset="0.26" stop-color="#d1d6e9"/><stop offset="0.41" stop-color="#bbc3d8"/><stop offset="0.57" stop-color="#99a6bd"/><stop offset="0.72" stop-color="#6b819c"/><stop offset="0.88" stop-color="#365373"/><stop offset="0.97" stop-color="#1e3a5a"/></linearGradient><linearGradient id="bed864e6-bf6b-43eb-8ce6-7a23eeacc49c" x1="978.35" y1="848.39" x2="1015.81" y2="884.59" xlink:href="#e27650d2-2803-43da-aadc-462ef489c4ce"/></defs><title>16</title><path d="M70.87.11A70.87,70.87,0,1,0,141.73,71,70.86,70.86,0,0,0,70.87.11Zm0,138.18A67.32,67.32,0,1,1,138.19,71,67.31,67.31,0,0,1,70.87,138.29Z" style="fill:url(#b58abc02-1f2a-4f2f-99b4-73a422ef1548)"/><path d="M138.7,71A67.83,67.83,0,1,1,70.87,3.14,67.83,67.83,0,0,1,138.7,71Z" style="fill:#3c3835"/><path d="M138.19,71A67.32,67.32,0,1,1,70.87,3.65,67.32,67.32,0,0,1,138.19,71Z" style="fill:url(#b26af118-e3a1-444d-a996-11f14f5777ef)"/><path d="M116,71A45.14,45.14,0,1,1,70.87,25.84,45.13,45.13,0,0,1,116,71Z" style="fill:url(#b6a289a2-c949-4cae-8970-778d4c0eecba)"/><polygon points="72.67 24.62 77.36 12.19 77.36 24.62 80.92 24.62 80.92 6.82 75.57 6.82 70.7 19.56 70.75 19.56 65.89 6.82 60.53 6.82 60.53 24.62 64.09 24.62 64.09 12.19 68.78 24.62 72.67 24.62" style="fill:#12110b"/><polygon points="121.54 32.6 115.46 41.47 125.01 36.77 127.61 39.88 112.57 47.43 109.53 43.75 115.36 34.96 115.32 34.91 105.63 39.07 102.55 35.41 112.69 21.98 115.29 25.09 108.94 33.64 118.76 29.26 121.54 32.6" style="fill:#12110b"/><path d="M39.35,29.2a4.55,4.55,0,0,0-5.73-.52,4,4,0,0,0,0-2.66,6.44,6.44,0,0,0-1.94-2.46c-2.39-2-4.91-.29-6.7,1.85L16.32,35.76,30,47.21,39.13,36.3C41.22,33.81,41.55,31.33,39.35,29.2Zm-17.66,5L26.9,28a2.13,2.13,0,0,1,2.85.05,1.87,1.87,0,0,1,.32,2.73L24.92,36.9Zm14.39,1L30.64,41.7l-3.41-2.86,5.48-6.53a2.23,2.23,0,0,1,3.37,2.91Z" style="fill:#3c3835"/><polygon points="72.71 23.93 77.4 11.5 77.4 23.93 80.96 23.93 80.96 6.13 75.61 6.13 70.74 18.88 70.79 18.88 65.92 6.13 60.57 6.13 60.57 23.93 64.13 23.93 64.13 11.5 68.82 23.93 72.71 23.93" style="fill:url(#bf8e11af-2e66-423e-98b8-9e6e2b1e3ba1)"/><polygon points="121.58 31.4 115.5 40.27 125.05 35.57 127.64 38.68 112.6 46.23 109.56 42.55 115.4 33.77 115.36 33.72 105.66 37.87 102.59 34.22 112.73 20.79 115.32 23.9 108.98 32.45 118.8 28.07 121.58 31.4" style="fill:url(#e75a51b5-10cd-4fca-a35e-648cb93f1f32)"/><path d="M38.71,28.85A4.53,4.53,0,0,0,33,28.33a3.94,3.94,0,0,0,0-2.66,6.26,6.26,0,0,0-1.94-2.46c-2.39-2-4.9-.29-6.7,1.85L15.69,35.41,29.34,46.86,38.5,36C40.59,33.46,40.91,31,38.71,28.85Zm-17.66,5,5.22-6.22a2.13,2.13,0,0,1,2.85.05,1.87,1.87,0,0,1,.31,2.73l-5.15,6.15Zm14.39,1L30,41.35l-3.42-2.86L32.08,32a2.23,2.23,0,0,1,3.36,2.91Z" style="fill:url(#a7849078-32cf-4e7b-b97f-803613590a9b)"/><path d="M27.22,71.08a43.63,43.63,0,1,1,43.63,43.64A43.63,43.63,0,0,1,27.22,71.08Z" style="fill:url(#fc2fe221-4dd8-4686-bf13-aff367d629ef)"/><path d="M28.47,71.08a42.38,42.38,0,1,1,42.38,42.38A42.39,42.39,0,0,1,28.47,71.08Z" style="fill:url(#f6388d43-8a38-4ade-b87f-ba63a25ec570)"/><path d="M28.42,71H70.87V28.53A42.45,42.45,0,0,0,28.42,71Z" style="fill:url(#bed89798-7283-46da-b284-daa79f1aa623)"/><path d="M70.87,71v42.45A42.45,42.45,0,0,0,113.31,71Z" style="fill:url(#fb322aa1-3f19-4c64-aae5-3c78a6a0e72a)"/><polygon points="113.66 70.22 71.62 70.22 71.62 28.18 70.11 28.18 70.11 70.22 28.07 70.22 28.07 71.72 70.11 71.72 70.11 113.77 71.62 113.77 71.62 71.72 113.66 71.72 113.66 70.22" style="fill:url(#ac52141e-b000-4cba-a940-46c67160dc95)"/><path d="M71.62,29.36a41.62,41.62,0,0,1,40.86,40.86h.75A42.37,42.37,0,0,0,71.62,28.61v.75Z" style="fill:url(#e27650d2-2803-43da-aadc-462ef489c4ce)"/><path d="M29.18,70.21A41.68,41.68,0,0,1,70.1,29.3v-.75A42.43,42.43,0,0,0,28.43,70.21Z" style="fill:#cedeee"/><path d="M70.11,112.58A41.61,41.61,0,0,1,29.26,71.72h-.75a42.35,42.35,0,0,0,41.6,41.61v-.75Z" style="fill:url(#e6aa9332-780e-44a8-8143-f65294f3e0e7)"/><path d="M112.48,71.72a41.61,41.61,0,0,1-40.86,40.86v.75a42.37,42.37,0,0,0,41.61-41.61Z" style="fill:#1c404f"/><polygon points="69.31 28.55 69.31 69.39 28.47 69.39 28.47 70.2 69.31 70.2 70.11 70.2 70.11 69.39 70.11 28.55 69.31 28.55" style="fill:url(#b7bb69aa-ffc6-4d8e-b77d-5beadd6718ee)"/><polygon points="69.24 112.94 69.24 72.59 28.81 72.59 28.81 71.79 69.24 71.79 70.04 71.79 70.04 72.59 70.04 112.94 69.24 112.94" style="fill:url(#f7ebdd19-23d5-4eeb-8eba-cc10506c11f1)"/><polygon points="72.48 112.94 72.48 72.59 112.83 72.59 112.83 71.79 72.48 71.79 71.69 71.79 71.69 72.59 71.69 112.94 72.48 112.94" style="fill:url(#b5481da4-b923-424a-8bca-bea9ecf74f48)"/><polygon points="72.48 28.91 72.48 69.26 112.83 69.26 112.83 70.06 72.48 70.06 71.69 70.06 71.69 69.26 71.69 28.91 72.48 28.91" style="fill:url(#bed864e6-bf6b-43eb-8ce6-7a23eeacc49c)"/></svg>