<?xml version="1.0" encoding="UTF-8" standalone="no"?>
<svg id="bd25f2a8-2cf7-4a59-a328-3f81a0dc6820" data-name="Calque 1" xmlns="http://www.w3.org/2000/svg" xmlns:xlink="http://www.w3.org/1999/xlink" viewBox="0 0 141.73 141.73"><defs><linearGradient id="e2ffbcbe-4214-436c-b626-bd8f55d80d26" x1="70.87" y1="8.45" x2="70.87" y2="133.43" gradientUnits="userSpaceOnUse"><stop offset="0" stop-color="#fff"/><stop offset="0.24" stop-color="#fdfdfd"/><stop offset="0.35" stop-color="#f6f6f6"/><stop offset="0.44" stop-color="#e9e9ea"/><stop offset="0.51" stop-color="#d7d8d9"/><stop offset="0.57" stop-color="#bfc1c2"/><stop offset="0.62" stop-color="#a3a5a7"/><stop offset="0.65" stop-color="#8e9193"/><stop offset="0.89" stop-color="#46494c"/><stop offset="1" stop-color="#292c30"/></linearGradient><linearGradient id="ac6fc54b-7748-4ec9-92d1-233835a16617" x1="70.87" y1="109.36" x2="70.87" y2="72.69" gradientUnits="userSpaceOnUse"><stop offset="0" stop-color="#58585a"/><stop offset="0.91" stop-color="#58585a"/><stop offset="1" stop-color="#1a171b"/></linearGradient><linearGradient id="f654b362-e449-413a-86fe-923ca5bb8c57" x1="70.85" y1="126.11" x2="70.85" y2="12.34" gradientUnits="userSpaceOnUse"><stop offset="0" stop-color="#fdfdfd"/><stop offset="0.18" stop-color="#fdfdfd"/><stop offset="0.21" stop-color="#eeefef"/><stop offset="0.34" stop-color="#9c9e9f"/><stop offset="0.44" stop-color="#686b6d"/><stop offset="0.49" stop-color="#54575a"/><stop offset="0.71" stop-color="#35383c"/><stop offset="0.79" stop-color="#292c30"/><stop offset="1" stop-color="#292c30"/></linearGradient><linearGradient id="b5c5814d-37fe-4fd7-8f55-41f7b452d2b2" x1="70.88" y1="75.16" x2="70.88" y2="10.34" gradientUnits="userSpaceOnUse"><stop offset="0" stop-color="#383c40"/><stop offset="0" stop-color="#383c40"/><stop offset="0.03" stop-color="#626569"/><stop offset="0.06" stop-color="#9a9c9e"/><stop offset="0.09" stop-color="#c5c7c8"/><stop offset="0.12" stop-color="#e5e5e6"/><stop offset="0.14" stop-color="#f8f8f8"/><stop offset="0.16" stop-color="#fff"/><stop offset="0.19" stop-color="#eff0f0"/><stop offset="0.25" stop-color="#dbdedf"/><stop offset="0.31" stop-color="#d0d3d4"/><stop offset="0.37" stop-color="#cccfd1"/><stop offset="0.69" stop-color="#cacdcf"/><stop offset="0.8" stop-color="#c3c7c9"/><stop offset="0.89" stop-color="#b7bbbd"/><stop offset="0.95" stop-color="#a6abae"/><stop offset="1" stop-color="#969b9e"/></linearGradient><radialGradient id="e79ab692-2b9f-411a-a759-4a1ba22ed5bf" cx="-7968.1" cy="-8443.65" r="346.69" gradientTransform="translate(1338.72 1408.47) scale(0.16)" gradientUnits="userSpaceOnUse"><stop offset="0" stop-color="#fff"/><stop offset="0.36" stop-color="#fff"/><stop offset="0.53" stop-color="#f8f9f9"/><stop offset="0.76" stop-color="#e6e8e9"/><stop offset="0.92" stop-color="#d5d8da"/><stop offset="1" stop-color="#d5d8da"/></radialGradient><linearGradient id="affda27a-3731-4eba-bb0c-5715f8e68c49" x1="55.49" y1="38.25" x2="54.39" y2="36.44" gradientUnits="userSpaceOnUse"><stop offset="0" stop-color="#fff"/><stop offset="0.24" stop-color="#f7f7f7"/><stop offset="0.62" stop-color="#e1e2e3"/><stop offset="1" stop-color="#c5c6c8"/></linearGradient><linearGradient id="ab879c74-ca92-4fd4-b3c9-8db5e71d8f77" x1="104.43" y1="37.82" x2="103.5" y2="35.78" xlink:href="#affda27a-3731-4eba-bb0c-5715f8e68c49"/><linearGradient id="e135abac-7100-4aec-840c-e6ebf729a935" x1="29.46" y1="34.07" x2="33.8" y2="38.41" xlink:href="#affda27a-3731-4eba-bb0c-5715f8e68c49"/><linearGradient id="bf77293c-e855-4166-abf2-c647f836ec69" x1="36.67" y1="41.05" x2="34.25" y2="37.75" xlink:href="#affda27a-3731-4eba-bb0c-5715f8e68c49"/><linearGradient id="b8d0d0ee-c7f9-483d-80b3-9f4391fb37d7" x1="54.35" y1="37.48" x2="58.31" y2="37.48" xlink:href="#affda27a-3731-4eba-bb0c-5715f8e68c49"/><linearGradient id="fe7e2d65-81ed-46d6-9f6d-0e7092ca5392" x1="109.47" y1="37.48" x2="103.7" y2="37.48" gradientUnits="userSpaceOnUse"><stop offset="0" stop-color="#c5c6c8"/><stop offset="0.38" stop-color="#e1e2e3"/><stop offset="0.76" stop-color="#f7f7f7"/><stop offset="1" stop-color="#fff"/></linearGradient><linearGradient id="ecfe9cc9-86e6-4fbd-8132-3e6e1363d5f3" x1="75.88" y1="39.77" x2="75.88" y2="34.82" xlink:href="#fe7e2d65-81ed-46d6-9f6d-0e7092ca5392"/><linearGradient id="ea971f68-53e6-4c36-a657-74c0a93feadc" x1="78.45" y1="39.36" x2="78.45" y2="35.19" xlink:href="#affda27a-3731-4eba-bb0c-5715f8e68c49"/><linearGradient id="b26f0372-c1c0-46fc-a30f-651756e840bf" x1="65.58" y1="27.93" x2="66.16" y2="35.19" gradientUnits="userSpaceOnUse"><stop offset="0" stop-color="#63769d"/><stop offset="0.11" stop-color="#63769d"/><stop offset="0.26" stop-color="#5a7199"/><stop offset="0.5" stop-color="#43638d"/><stop offset="0.8" stop-color="#1d4c7a"/><stop offset="1" stop-color="#003b6b"/></linearGradient><linearGradient id="a4fe66fa-89c9-4050-a939-819560ea7578" x1="70.87" y1="10.36" x2="70.87" y2="119.7" gradientUnits="userSpaceOnUse"><stop offset="0" stop-color="#fff"/><stop offset="0.55" stop-color="#fff"/><stop offset="1" stop-color="#fff"/></linearGradient><linearGradient id="a09e56b6-8529-4bd6-9fac-eabff27599d6" x1="70.89" y1="75.72" x2="70.89" y2="9.7" gradientUnits="userSpaceOnUse"><stop offset="0" stop-color="#58585a"/><stop offset="0.04" stop-color="#515153"/><stop offset="0.08" stop-color="#414043"/><stop offset="0.15" stop-color="#302e31"/><stop offset="0.23" stop-color="#232124"/><stop offset="0.33" stop-color="#1c191d"/><stop offset="0.54" stop-color="#1a171b"/><stop offset="0.77" stop-color="#2a282b"/><stop offset="1" stop-color="#353437"/></linearGradient></defs><title>139</title><path d="M138.79,10.9h0m0,0h0ZM40.18,124c-7-5.51-10.85-12.84-14.53-22.16-.82-2.09-5.46-15.38-6.89-19.74l-3.9-12.44-3.6-12.49-2.39-9c-1.29-5-2.47-10.08-3.54-15S3.22,23,2.3,17.94L1.79,15a2.24,2.24,0,0,1,1.62-2.41l1-.16,2.74-.31c9.58-.85,39.52-1.83,63.76-1.83s54.17,1,63.75,1.83l2.74.31,1,.16A2.25,2.25,0,0,1,139.94,15l-.51,2.9c-.91,5-1.93,10.17-3,15.19s-2.26,10-3.54,15l-2.38,9-3.6,12.49L123,82.07c-1.43,4.37-6.06,17.66-6.89,19.74-3.68,9.32-7.56,16.65-14.53,22.16-6.27,4.95-12.73,7.46-30.67,7.46S46.31,128.8,40.18,124ZM7,10.37l-2.84.32L3,10.9A4,4,0,0,0,0,15.26l.52,3c.93,5.1,2,10.24,3,15.26s2.27,10,3.55,15l2.4,9.07,3.62,12.53,3.91,12.47c1.47,4.52,6.07,17.68,6.93,19.85,3.78,9.59,7.8,17.15,15.08,22.9s15.45,7.84,31.8,7.84,24.35-2,31.77-7.84,11.3-13.31,15.09-22.9c.85-2.16,5.44-15.32,6.92-19.85l3.92-12.47,3.61-12.53,2.4-9.07c1.28-5,2.47-10.08,3.55-15s2.12-10.18,3-15.26l.52-3,0-.48a4,4,0,0,0-2.94-3.87l-1.18-.21-2.83-.32c-9.62-.85-39.63-1.84-63.91-1.84S16.57,9.52,7,10.37Z" style="fill:#58585a"/><path d="M95.92,91.14c-2,4.58-4,8.92-7.22,11.85-2.35,2.13-5.69,4.09-13.39,4.38-1.47,0-3.38.06-4.44.06s-3,0-4.43-.06c-7.7-.29-11-2.25-13.39-4.38-3.23-2.93-5.28-7.27-7.23-11.85-.89-2.07-6.06-14.73-6.91-17.31,10.54.53,22.27.9,32,.9s21.42-.37,32-.9c-.85,2.58-6,15.24-6.92,17.31m42.63-79.39c-.22-.06-.7-.12-1.07-.18-.83-.12-1.76-.22-2.78-.31-9.35-.83-39-1.84-63.83-1.84S16.38,10.43,7,11.26c-1,.09-1.94.19-2.78.31-.37.06-.84.12-1.07.18a3.13,3.13,0,0,0-2.27,3.4c0,.08.39,2.24.52,2.94q1.38,7.65,3,15.23T8,48.32q1.15,4.53,2.39,9C11,59.59,12.88,66.15,14,69.88q1.88,6.25,3.91,12.46C19.39,86.85,24,100,24.83,102.13c3.78,9.57,7.79,17,14.8,22.54,6.8,5.37,14,7.65,31.25,7.65s24.43-2.28,31.22-7.65c7-5.55,11-13,14.81-22.54.83-2.1,5.43-15.28,6.91-19.79q2-6.21,3.91-12.46c1.12-3.73,3-10.29,3.61-12.51q1.23-4.51,2.39-9,1.89-7.47,3.54-15t3-15.23c.13-.7.51-2.86.52-2.94A3.12,3.12,0,0,0,138.55,11.75Z" style="fill:url(#e2ffbcbe-4214-436c-b626-bd8f55d80d26)"/><path d="M96.74,91.49h0m4.81-16.71c-1.51,4-5.67,14.2-6.44,16h0c-1.83,4.28-3.86,8.69-7,11.54-2.19,2-5.26,3.86-12.82,4.15l-4.41.06-4.4-.06c-7.59-.29-10.74-2.26-12.82-4.15-3.14-2.85-5.19-7.26-7-11.54-.78-1.81-4.93-12-6.44-16,11.31.54,22.16.85,30.67.85S90.23,75.32,101.55,74.78Zm-63.48-.67c.87,2.64,6,15.28,6.93,17.38,1.9,4.46,4,9.07,7.45,12.16,2.32,2.1,5.79,4.3,14,4.6l4.47.06,4.47-.06c8.16-.3,11.63-2.5,14-4.6,3.41-3.09,5.54-7.7,7.44-12.16.9-2.1,6.07-14.73,6.94-17.38l.41-1.23-1.3.07c-11.76.57-23.1.89-31.92.89S50.72,73.52,39,73l-1.29-.07Z" style="fill:url(#ac6fc54b-7748-4ec9-92d1-233835a16617)"/><path d="M103.12,74.17l-.11.08-.44.33-.32.88c-.24.65-.49,1.29-.74,1.94-.51,1.34-1,2.67-1.56,4q-1.61,4-3.28,8a84.08,84.08,0,0,1-3.59,7.78,21.33,21.33,0,0,1-4.86,6.23A16.41,16.41,0,0,1,81,106.75a43.47,43.47,0,0,1-8.45.67H69.16a43.43,43.43,0,0,1-8.44-.67,16.45,16.45,0,0,1-7.2-3.35,21.47,21.47,0,0,1-4.85-6.23,84.08,84.08,0,0,1-3.59-7.78q-1.68-4-3.27-8c-.54-1.34-1.06-2.67-1.57-4-.25-.65-.5-1.29-.74-1.94l-.32-.88-.44-.33-.11-.08c-2.62-2.11-13.4-14.84-20-30.05A292.64,292.64,0,0,1,7.52,12.18c.72,4.08,2,8.55,3.22,12.9.3,1.06.59,2.07.86,3.07,1.58,5.67,3.26,11.45,5,17.19,3.4,11.19,6.91,22.59,11.24,34,2.3,6,4.44,11.32,6.55,16.21,1.87,4.33,4.24,9.3,7.7,13.38a26,26,0,0,0,12.24,8.36c4.21,1.35,9.16,1.93,16.53,1.93s12.32-.58,16.53-1.93a26,26,0,0,0,12.25-8.36c3.45-4.08,5.83-9,7.7-13.38,2.11-4.89,4.25-10.2,6.55-16.21,4.34-11.36,7.84-22.77,11.24-33.95,1.75-5.74,3.43-11.52,5-17.19.25-.86.5-1.76.74-2.63,1.24-4.39,2.51-8.91,3.3-13.2a303.71,303.71,0,0,1-11.31,32.37c-6.57,15.21-17.13,27.37-19.75,29.48" style="fill:url(#f654b362-e449-413a-86fe-923ca5bb8c57)"/><path d="M134,11.2C113,9.93,92,9.42,70.87,9.42S28.74,9.93,7.71,11.2a230.7,230.7,0,0,0,8,27.18v0h0c.77,2.07,1.59,4.13,2.45,6.13C24.58,59.45,36,71.36,38.91,73.84l2.65.14,6.12.26c4,.16,8,.3,12.07.38q5.56.12,11.12.11T82,74.62c4-.08,8.05-.22,12.07-.38l6.13-.26,2.65-.14c2.92-2.48,14.32-14.39,20.77-29.31a186.12,186.12,0,0,0,8-23.64h0l0,0c1.56-5.71,2.42-9.67,2.42-9.67" style="fill:url(#b5c5814d-37fe-4fd7-8f55-41f7b452d2b2)"/><path d="M45.8,40.34c34.46-1.92,65.1-9.53,86-20.1,1.45-5.37,2.25-9,2.25-9h0c-10-.82-38.91-1.78-63.17-1.78s-53.13,1-63.16,1.78h0a230.7,230.7,0,0,0,8,27.18v0h0c.26.71.53,1.41.8,2.11a290.53,290.53,0,0,0,29.31-.17" style="fill:url(#e79ab692-2b9f-411a-a759-4a1ba22ed5bf)"/><path d="M110.33,42.18l-.32.51,1.31,2.7.32-.51c-.12-.26-1.31-2.7-1.31-2.7" style="fill:#fff"/><path d="M100.51,42.18l-1.28,2.7H94.56l-.79.51h5.78l1.28-2.7H110l.32-.51h-9.82" style="fill:#fff"/><path d="M100.51,42.18l-1.28,2.7H94.56l-.79.51h5.78l1.28-2.7H110l.32-.51h-9.82" style="fill:#c5c6c8"/><path d="M114.93,40.7c-1.16-2.57-2.12-4.63-2.84-6.12-1.38-2.89-1.79-3.45-2-3.63a4.46,4.46,0,0,0-2-1,10.71,10.71,0,0,0-2.72-.35v.51a10.07,10.07,0,0,1,2.58.33,3.79,3.79,0,0,1,1.75.91,18,18,0,0,1,1.89,3.48c.71,1.49,1.66,3.54,2.82,6.11,0,0,1.52,3.36,1.78,4h-4.6l-.32.51H117l-2.1-4.69" style="fill:#fff"/><polyline points="106.03 33.34 106.03 33.31 106.02 33.3 106.03 33.34" style="fill:#fff"/><path d="M61,42.18l-.32.51c.12.26,1.31,2.7,1.31,2.7l.32-.51L61,42.18" style="fill:#fff"/><path d="M51.2,42.18s-1.16,2.44-1.29,2.7H45.24l-.78.51h5.77l1.29-2.7H60.7l.32-.51H51.2" style="fill:#fff"/><path d="M51.2,42.18s-1.16,2.44-1.29,2.7H45.24l-.78.51h5.77l1.29-2.7H60.7l.32-.51H51.2" style="fill:#c5c6c8"/><path d="M65.62,40.7c-1.17-2.57-2.12-4.63-2.84-6.12a17.32,17.32,0,0,0-2-3.63,4.46,4.46,0,0,0-2-1,10.77,10.77,0,0,0-2.72-.35v.51a10.07,10.07,0,0,1,2.58.33,3.79,3.79,0,0,1,1.75.91,17.72,17.72,0,0,1,1.88,3.48c.72,1.49,1.67,3.54,2.83,6.11l1.78,4h-4.6l-.32.51h5.71l-2.1-4.69" style="fill:#fff"/><path d="M55.85,33.6l.21-.12V33a.68.68,0,0,0-.62.29l-3.17,6.66.81-.51c.31-.64,2.77-5.82,2.77-5.82" style="fill:#c5c6c8"/><polyline points="56.72 33.34 56.71 33.31 56.7 33.3 56.72 33.34" style="fill:#fff"/><path d="M56.71,33.31v0l0,0h0c-.05-.14-.18-.34-.6-.34h0v.5h0l.18.11s2.5,5.18,2.83,5.83h-6l-.81.51h7.66l-3.22-6.62" style="fill:url(#affda27a-3731-4eba-bb0c-5715f8e68c49)"/><path d="M105.16,33.6l.2-.12V33a.68.68,0,0,0-.62.29l-3.17,6.66.81-.51,2.78-5.82" style="fill:#c5c6c8"/><path d="M106,33.31v0l0,0h0c0-.14-.19-.34-.61-.34h0v.5h0l.19.11,2.82,5.83h-6l-.81.51h7.66L106,33.31" style="fill:url(#ab879c74-ca92-4fd4-b3c9-8db5e71d8f77)"/><path d="M87.54,30.15h4.33l.51-.51H87V45.39l.51-.51V30.15" style="fill:#fff"/><path d="M92.38,29.64l-.51.51V44.88H87.53l-.5.51h5.35V29.64" style="fill:#c5c6c8"/><path d="M25.87,30.15H36.73a7.59,7.59,0,0,1,5.84,2.35,4.79,4.79,0,0,1,.46.55l.37-.37c-.14-.18-.29-.36-.45-.53a8.14,8.14,0,0,0-6.22-2.51H25.36V45.39l.51-.51V30.15" style="fill:url(#e135abac-7100-4aec-840c-e6ebf729a935)"/><path d="M30.71,33.37h5.22a3.06,3.06,0,0,1,2.41,1L38.7,34a3.58,3.58,0,0,0-2.77-1.16H30.2v9.22l.51-.51v-8.2" style="fill:#c5c6c8"/><path d="M43,43a7.44,7.44,0,0,0,2-5.32,7.94,7.94,0,0,0-1.64-5l-.37.37a7.4,7.4,0,0,1,1.5,4.6,6.92,6.92,0,0,1-1.91,5,7.75,7.75,0,0,1-5.89,2.26H25.87l-.51.51H36.73A8.23,8.23,0,0,0,43,43" style="fill:#c5c6c8"/><path d="M38.9,40.58a5.22,5.22,0,0,0,1-3.21,5,5,0,0,0-1-3.09L38.7,34l-.35.36.17.21a4.43,4.43,0,0,1,.85,2.78,4.75,4.75,0,0,1-.87,2.9,3,3,0,0,1-2.57,1.3H30.71l-.51.51h5.73a3.55,3.55,0,0,0,3-1.5" style="fill:url(#bf77293c-e855-4166-abf2-c647f836ec69)"/><path d="M62,45.39h5.72L65.62,40.7c-1.16-2.57-2.12-4.63-2.84-6.12a17.32,17.32,0,0,0-2-3.63,4.46,4.46,0,0,0-2-1,10.34,10.34,0,0,0-2.72-.35h0a10.33,10.33,0,0,0-2.74.35,4.6,4.6,0,0,0-2,1,20.4,20.4,0,0,0-2,3.63l-2.87,6.12-2.07,4.68.78-.51,1.76-4,2.86-6.11a25.28,25.28,0,0,1,1.85-3.5,4.08,4.08,0,0,1,1.77-.9,9.82,9.82,0,0,1,2.61-.33h0a10.07,10.07,0,0,1,2.58.33,3.79,3.79,0,0,1,1.75.91,17.72,17.72,0,0,1,1.88,3.48c.72,1.49,1.67,3.54,2.83,6.1l1.78,4h-4.6l-.32.51" style="fill:url(#b8d0d0ee-c7f9-483d-80b3-9f4391fb37d7)"/><path d="M111.32,45.39H117l-2.1-4.69c-1.16-2.57-2.11-4.63-2.84-6.12-1.38-2.89-1.79-3.45-2-3.63a4.46,4.46,0,0,0-2-1,10.28,10.28,0,0,0-2.72-.35h0a10.4,10.4,0,0,0-2.75.35,4.66,4.66,0,0,0-2,1,21.32,21.32,0,0,0-2,3.63l-2.87,6.12-2.07,4.68.79-.51c.26-.6,1.75-4,1.75-4l2.86-6.11a25.28,25.28,0,0,1,1.85-3.5,4.14,4.14,0,0,1,1.77-.9,9.89,9.89,0,0,1,2.62-.33h0a10.07,10.07,0,0,1,2.58.33,3.79,3.79,0,0,1,1.75.91,18,18,0,0,1,1.89,3.48c.71,1.49,1.66,3.54,2.82,6.1l1.79,4h-4.61l-.32.51" style="fill:url(#fe7e2d65-81ed-46d6-9f6d-0e7092ca5392)"/><path d="M84.26,44.88h-9a7.76,7.76,0,0,1-5.88-2.26A7,7,0,0,1,68.24,41a7.2,7.2,0,0,1-.75-3.31,7.36,7.36,0,0,1,2-5.16,7.61,7.61,0,0,1,5.84-2.34h9l.51-.51H75.29a8.13,8.13,0,0,0-6.22,2.51,8.24,8.24,0,0,0-1.21,9.19A6.68,6.68,0,0,0,69.05,43a8.19,8.19,0,0,0,6.24,2.42h9.48V41.57l-.51.51v2.8" style="fill:url(#ecfe9cc9-86e6-4fbd-8132-3e6e1363d5f3)"/><path d="M73.51,34.6a3,3,0,0,1,2.58-1.23h8.68V29.64l-.51.51v2.71H76.09a3.56,3.56,0,0,0-3,1.42,4.87,4.87,0,0,0-1,3.09v.29a5.1,5.1,0,0,0,1,2.91,3.51,3.51,0,0,0,3,1.51h8.17l.51-.51H76.09a3,3,0,0,1-2.56-1.3,4.73,4.73,0,0,1-.88-2.9v-.14a4.38,4.38,0,0,1,.86-2.63" style="fill:url(#ea971f68-53e6-4c36-a657-74c0a93feadc)"/><path d="M38.9,40.58a3.54,3.54,0,0,1-3,1.5H30.2V32.86h5.73a3.57,3.57,0,0,1,3,1.43,4.94,4.94,0,0,1,1,3.08,5.28,5.28,0,0,1-1,3.21m3.67-8.08a7.6,7.6,0,0,0-5.84-2.35H25.87V44.88H36.73a7.75,7.75,0,0,0,5.89-2.26,6.92,6.92,0,0,0,1.91-5A7.34,7.34,0,0,0,42.57,32.5Z" style="fill:#002e60"/><path d="M69.41,42.63a7,7,0,0,1-1.92-5,7.33,7.33,0,0,1,2-5.15,7.6,7.6,0,0,1,5.84-2.35h9v2.71H76.08a3.56,3.56,0,0,0-3,1.43,4.85,4.85,0,0,0-1,3.08,5.32,5.32,0,0,0,1,3.21,3.51,3.51,0,0,0,3,1.5h8.17v2.8h-9a7.77,7.77,0,0,1-5.87-2.25" style="fill:#002e60"/><path d="M91.86,30.15V44.88H87.53V30.15h4.33" style="fill:#002e60"/><path d="M101.57,39.93l3.17-6.66a.76.76,0,0,1,.67-.3c.41,0,.55.2.6.34l3.22,6.62h-7.66m12.88,1c-1.16-2.57-2.11-4.62-2.82-6.11a18.43,18.43,0,0,0-1.89-3.48,3.8,3.8,0,0,0-1.74-.91,10.8,10.8,0,0,0-5.22,0,4.15,4.15,0,0,0-1.76.9,23.75,23.75,0,0,0-1.86,3.51l-2.86,6.1s-1.49,3.36-1.75,4h4.67l1.28-2.7h9.82l1.31,2.7h4.6Z" style="fill:#002e60"/><path d="M52.26,39.93l3.17-6.66a.76.76,0,0,1,.67-.3c.42,0,.56.2.61.34l3.21,6.62H52.26m12.88,1C64,38.34,63,36.29,62.32,34.8a19,19,0,0,0-1.88-3.48,3.9,3.9,0,0,0-1.75-.91,10.31,10.31,0,0,0-2.61-.32,10.17,10.17,0,0,0-2.6.32,4.13,4.13,0,0,0-1.77.9,26.51,26.51,0,0,0-1.86,3.51L47,40.92l-1.76,4h4.67c.13-.26,1.28-2.7,1.28-2.7H61s1.18,2.44,1.3,2.7h4.61C66.66,44.27,65.14,40.91,65.14,40.91Z" style="fill:#002e60"/><path d="M69.44,32.5a7.34,7.34,0,0,0-2,5.15c0,.23,0,.46,0,.68,1.56-.2,3.1-.42,4.63-.64v-.32a4.85,4.85,0,0,1,1-3.08,3.54,3.54,0,0,1,3-1.43h8.17V30.15h-9a7.6,7.6,0,0,0-5.84,2.35M36.73,30.15H25.87V40.78l4.33,0V32.86h5.73a3.57,3.57,0,0,1,3,1.43,4.94,4.94,0,0,1,1,3.08,5.21,5.21,0,0,1-1,3.21l-.06.06c1.72,0,3.45-.12,5.18-.21a7.77,7.77,0,0,0-1.45-7.93A7.59,7.59,0,0,0,36.73,30.15ZM87.53,35c1.46-.3,2.9-.62,4.33-1V30.15H87.53ZM60.44,31.32a3.75,3.75,0,0,0-1.75-.9,10.45,10.45,0,0,0-5.21,0,3.92,3.92,0,0,0-1.77.9,25,25,0,0,0-1.86,3.5l-2.54,5.43c1.66-.1,3.32-.21,5-.34l3.17-6.64a.73.73,0,0,1,.67-.3c.41,0,.55.2.6.34l2.88,5.94c1.53-.16,3.06-.32,4.57-.5-.72-1.58-1.34-2.91-1.84-4A18.17,18.17,0,0,0,60.44,31.32Zm45-1.23a9.87,9.87,0,0,0-2.61.33,3.94,3.94,0,0,0-1.76.9,2.59,2.59,0,0,0-.32.48c2-.53,3.89-1.08,5.78-1.65A9.56,9.56,0,0,0,105.39,30.09Z" style="fill:url(#b26f0372-c1c0-46fc-a30f-651756e840bf)"/><path d="M15.16,45.79Q20.38,63,26.8,79.72c2.07,5.42,4.22,10.81,6.52,16.14a53.9,53.9,0,0,0,7.87,13.64c7.65,9,16.68,10.74,29.68,10.74s22-1.73,29.68-10.74a53.31,53.31,0,0,0,7.87-13.64c2.3-5.33,4.46-10.72,6.53-16.14Q121.34,63,126.59,45.79q2.59-8.58,5-17.22a175.34,175.34,0,0,0,4.3-17.18c-.38-.05-.77-.09-1.19-.12l-.31,0a142.13,142.13,0,0,1-3.51,14.29c-.24.87-.49,1.77-.74,2.64-1.57,5.66-3.25,11.44-5,17.18-3.4,11.18-7.3,22.57-11.6,33.83-2.28,6-4.41,11.23-6.5,16.08-1.85,4.29-4.2,9.23-7.63,13.27a25.8,25.8,0,0,1-12.15,8.29c-4.17,1.34-9.07,1.91-16.39,1.91s-12.22-.57-16.39-1.91a25.83,25.83,0,0,1-12.14-8.29c-3.42-4-5.78-9-7.63-13.27-2.1-4.85-4.22-10.11-6.5-16.08-4.3-11.26-8.2-22.64-11.6-33.83-1.75-5.74-3.43-11.52-5-17.18-.28-1-.57-2-.87-3.08A123.54,123.54,0,0,1,7.36,11.24l-.33,0c-.41,0-.8.07-1.18.12.84,5.43,2.77,11.66,4.3,17.18q2.4,8.64,5,17.22" style="fill:url(#a4fe66fa-89c9-4050-a939-819560ea7578)"/><path d="M18.21,44.49C11.89,29.86,7.82,11.39,7.78,11.19l-.56.05v0C7.39,12,11.4,30.2,17.67,44.72S35.3,71.66,38.51,74.25l.12.09.63.47-.35-1c-2.57-2.19-14.17-14.22-20.7-29.34M134,11.19c-.05.23-4.12,18.69-10.43,33.3-6.53,15.12-18.16,27.19-20.7,29.35l0,0-.35,1,.63-.47.12-.1c3.21-2.58,14.53-14.93,20.86-29.57,6.24-14.45,10.31-32.7,10.47-33.46v0Z" style="fill:url(#a09e56b6-8529-4bd6-9fac-eabff27599d6)"/></svg>