<?xml version="1.0" encoding="UTF-8" standalone="no"?>
<svg id="b3ee5490-be35-4a36-952f-e29db7454d0d" data-name="Calque 1" xmlns="http://www.w3.org/2000/svg" viewBox="0 0 141.73 141.73"><title>35</title><path id="aab9bb04-5fd7-4e66-ab66-3fba3c3b8cec" data-name="path4138" d="M70.67,0a58.45,58.45,0,0,0-14,1.32,71,71,0,0,0-44.6,109.12,76.26,76.26,0,0,0,18.61,18.85,71.37,71.37,0,0,0,32.59,12.08l3,.29A109.51,109.51,0,0,0,80,141.2,70.2,70.2,0,0,0,111.47,129,71,71,0,0,0,88.19,2,62.2,62.2,0,0,0,70.67,0ZM70,2c3.67,0,8.06.18,9.69.41A70.89,70.89,0,0,1,102.8,9.74a69.14,69.14,0,0,1,36.86,57.79l.13,3-1.33-1.26c-.73-.7-1.78-1.7-2.34-2.22-1.74-1.63-3.54-5.92-4.57-10.9L131.11,54l.08,4.6a108.91,108.91,0,0,1-11.31,49.66,43,43,0,0,1-5.84,9.44c-2.08,2.27-7.59,6.12-11.83,8.29-6.76,3.45-13.83,5.2-23.54,5.85-2.87.19-13.1.29-13.28.13s-1.2-.13-2.55-.21a58.47,58.47,0,0,1-22.2-5.42c-4.59-2.29-10.81-6.65-12.7-8.9a38.34,38.34,0,0,1-2.28-3.11A107.63,107.63,0,0,1,11,60.7c0-4.72,0-5.15-.26-4.06-.86,4.2-2.34,6.79-4.89,8.51a10.31,10.31,0,0,0-3.3,3.34L2,69.4V68.09c0-.72.14-2.58.3-4.14A69.1,69.1,0,0,1,17.38,27.42,94.27,94.27,0,0,1,27.84,17,69.16,69.16,0,0,1,58.75,3c2.25-.39,2.85-.47,6.15-.83C65.84,2,67.78,2,70,2Zm1.48,10c-3.35,0-6.68.06-8.4.26a83.38,83.38,0,0,0-32.7,10.65,30.53,30.53,0,0,0-7.88,5.9c-3.29,3.41-5,6.35-6.78,11.67-3.09,9.19-3.74,19.76-2,33.35a108.89,108.89,0,0,0,9.81,32.94c1.38,2.82,1.78,3.45,2.82,4.48a11.34,11.34,0,0,0,2.28,1.73c1.2.6,2.21.67,2.61.19s.5-4.21.2-5.75c-.13-.66-.65-2.55-1.15-4.19a211.73,211.73,0,0,1-8.17-43,126.26,126.26,0,0,1,.09-15.89c.66-6.22,2-11,3.73-13.53a15.79,15.79,0,0,1,4.57-3.72c6.61-3.8,18.45-6.5,32-7.29,4.09-.24,16.27-.16,19.64.12,15.44,1.31,26.39,4.31,32.33,8.86a10.38,10.38,0,0,1,3.78,5.65c1.65,4.84,2.34,10.22,2.32,18.21,0,13.85-3.07,32.54-8.06,49.39-1.55,5.27-1.71,6-1.71,8.15,0,2.46.31,3.28,1.26,3.28a7,7,0,0,0,3.91-2.12c.9-.88,1.36-1.63,2.69-4.38a107.93,107.93,0,0,0,10.05-34.18,78.8,78.8,0,0,0,.63-13.26c-.05-5.55-.13-7.13-.48-9.32-1.22-7.74-3.21-13.53-6.19-18a30.84,30.84,0,0,0-5.9-6.23,82.78,82.78,0,0,0-15.94-8.43A81.22,81.22,0,0,0,80,12.31c-1.8-.22-5.17-.35-8.51-.37Zm-.09,10.74c-9.59,0-12.55.17-19,1.11-10.73,1.56-19,4.4-22.78,7.82-2.5,2.26-4,7.11-4.67,15a135,135,0,0,0,.3,17.12A204.23,204.23,0,0,0,35,108.58c1.79,5,2.27,5.71,5.32,7.72,5.8,3.81,13.22,5.89,23.71,6.64a135.62,135.62,0,0,0,14,0c10.93-.76,18-2.69,24-6.55,2.74-1.77,3.58-2.74,4.56-5.27,4.83-12.49,8.8-29.9,10.69-46.87a94.32,94.32,0,0,0,.36-10.93c0-7.17,0-8-.45-10.67-.86-5.34-2.21-9.1-3.84-10.7-4.21-4.14-14.56-7.34-28.56-8.83-3.67-.39-5.35-.45-13.31-.45ZM68.08,48.3h17.4c5.66,9.61,7.71,23.43,7,47.87h-7c0-5.51-.21-16.3-.88-19.79H76l-.08,19.79h-7.2L68.08,48.3Zm-33.16,0H52.07l0,6.25H43.87l0,15.58h6.32v6.19H43.84L44,96.18H36.47Zm20.13,0H64l-.16,47.88H56l-1-47.88Zm36.48,0h21.15l0,6h-6.1L105,96.18H97.5l.18-41.85H91.53v-6ZM75.77,54.19l-.09,16.27h8.66c-1-7.86-2.26-12.65-4.23-16.27Zm-34,68c-.65,0-.83.07-.83.34,0,.59,2.62,3,4.18,3.76,3.22,1.68,10.3,3.21,17.49,3.79,3.48.28,17.1.09,20.15-.28,7.19-.87,12.85-2.39,15.62-4.19,1.5-1,2.91-2.44,2.91-3,0-.34-.13-.41-.79-.41a44.45,44.45,0,0,0-7.39,1.51,59.22,59.22,0,0,1-9.17,1.71c-11.92,1.5-25,.83-35-1.81a43.85,43.85,0,0,0-7.17-1.41Z" style="fill:#a70230"/></svg>