<?xml version="1.0" encoding="UTF-8" standalone="no"?>
<svg id="f1d82189-4684-4136-9103-213b04abac3d" data-name="Calque 1" xmlns="http://www.w3.org/2000/svg" viewBox="0 0 141.73 141.73"><title>36</title><path d="M70.89,97.67c39.12,0,70.84-12,70.84-26.78S110,44.06,70.89,44.06,0,56.08,0,70.89,31.72,97.67,70.89,97.67Z" style="fill:#0b4b8f"/><path d="M70.89,94.93c-37.57,0-68.1-10.69-68.1-24s30.53-24.13,68.1-24.13S139,57.59,139,70.89,108.55,94.93,70.89,94.93Z" style="fill:#fff"/><path d="M70.89,93.06c36.43,0,66-9.92,66-22.17s-29.58-22.12-66-22.12S4.94,58.69,4.94,70.89,34.42,93.06,70.89,93.06Z" style="fill:#0b4b8f"/><path d="M88.17,75.32c3.1-2.92,4.84-6,9.32-5.94,2.7.05,3.38,2.19,3.84,3.11l5.89-10h3.62l-9.78,17.33a3.5,3.5,0,0,0-.6,1.6c.09.86,1.19.64.78.64,2-.09,5.57-3.84,6.44-4.76.19-.23.5-.64.69-.64s.55.19.55.46a4.16,4.16,0,0,1-.74,1.28c-1.82,2.28-4.84,5.8-8.27,5.89-1.69,0-2.33-.68-2.56-2a11,11,0,0,1-6.12,1.88,3.72,3.72,0,0,1-3.61-2.43,5.26,5.26,0,0,1-.28-3.42,7.5,7.5,0,0,1-4,.68c-1.92,0-3.11-.91-3.7-3.15-2.19,4-2.28,4.16-4.52,8.37H71.21l5-8.46a11.13,11.13,0,0,0,1.19-3,.89.89,0,0,0-.87-1.09,5,5,0,0,0-2.69,1.6,52.27,52.27,0,0,0-4.44,5.53c-1.78,2.65-4.84,5.66-8.18,5.66a4.82,4.82,0,0,1-5.07-3.88s-.23.59-2.37,1.83c-.19.09-.64.36-.78.27a2.12,2.12,0,0,1-.69-1.14c.14,0,.41-.19,1.28-.87a6,6,0,0,0,2.06-2.29c.41-.87,1.14-2.24,1.64-3.2,1.38-2.74,3.75-5.53,7.64-5.66a.94.94,0,0,1,1,.5.84.84,0,0,1,.22.82,8.7,8.7,0,0,0-5.75,3.56,10.09,10.09,0,0,0-1.56,3.84c-.27,2.06.69,3.43,2.1,3.75,2.65.41,4.85-1.51,6.59-4.48a10.43,10.43,0,0,0,.77-3.88,4.31,4.31,0,0,0-1-2.7,1.17,1.17,0,0,1,1.1-1.28.67.67,0,0,1,.55.19,6.13,6.13,0,0,1,1.41,4,7,7,0,0,1-.09,1.37c1.92-2.33,4.35-5.35,6.22-5.94a2.34,2.34,0,0,1,1.1-.18,2.59,2.59,0,0,1,3,3c1.82-2.1,3.1-2.88,4.8-2.79a2.37,2.37,0,0,1,2.46,2.38,2.62,2.62,0,0,1-2.42,2.61,2.42,2.42,0,0,1-2.51-1.83,2.24,2.24,0,0,0-1.46,2.1,2.27,2.27,0,0,0,2.33,2.7A5.92,5.92,0,0,0,88.17,75.32Z" style="fill:#fff"/><path d="M90.91,55.63c0,1.46-5.12,4.25-9.46,4.25-6.77,0-13.81-3.25-17-4a44.85,44.85,0,0,0-9.24-1.51c-8.82,0-12.75,3.8-12.56,7.27a2.22,2.22,0,0,0,2.92,2c1.83-.32,4.39-2.06,5-3.56a.49.49,0,0,1,.64-.28.56.56,0,0,1,.18.55c-.23,1.78-3,6.72-7.72,6.72a4.66,4.66,0,0,1-4.39-4.89c.05-4.53,4.66-9.1,16-9.1a43.39,43.39,0,0,1,7.23.64,116.63,116.63,0,0,0,16.91,1.92A53.84,53.84,0,0,0,87,55.4c2.52-.41,2-.5,3-.5S90.91,55.26,90.91,55.63Z" style="fill:#fff"/><path d="M97.67,71.53c-1.6-.18-3.61,1.19-5.25,3.2a9.73,9.73,0,0,0-1.83,4.07,3.19,3.19,0,0,0,.55,2.6c.41.32,2.24,1.28,5.07-1.6a25.84,25.84,0,0,0,3.15-4.2l-.5-.14C99.82,73.68,99.64,71.76,97.67,71.53Z" style="fill:#0b4b8f"/><path d="M64.26,66.14c0,.5.69.91,1.28,1-.13.5-.09.73-.32.68a2.21,2.21,0,0,1-1.92-1.32c-1.82.32-3.61.55-7.22.91C47,82.09,44.15,84.51,38.58,84.51c-4,0-7.5-2.61-7.59-7.27,0-2.83,2.24-6.31,6.49-7.36.51,0,.69.19.69.46s-.18.41-.6.6a6.56,6.56,0,0,0-3.38,5.12A4,4,0,0,0,37,80a4.89,4.89,0,0,0,1.41.09c4.43,0,9.42-5,14.81-12.57-.87,0-4.57.46-5.48,1.51-.41.32-.69.14-.78-.23a1.71,1.71,0,0,1,.27-.59c1.47-1.65,5.85-2,6.91-2.15,4.11-6.31,9.41-10.24,10.51-10.19a.52.52,0,0,1,.41.73,4.86,4.86,0,0,1-.68.73A28.3,28.3,0,0,0,57,65.91a59.41,59.41,0,0,0,5.94-.69,4.45,4.45,0,0,1-.18-1.09c.14-2,1.28-3.16,2.74-2.93a1.6,1.6,0,0,1,1.37,1.56,4.07,4.07,0,0,1-1.18,2.46A9.27,9.27,0,0,1,64.26,66.14Z" style="fill:#fff"/><path d="M64,65.13s.46.05,1.15-.73a2.48,2.48,0,0,0,.64-1.65c0-.27-.19-.59-.5-.55A1.48,1.48,0,0,0,64,63.35,3.07,3.07,0,0,0,64,65.13Z" style="fill:#0b4b8f"/></svg>