<?xml version="1.0" encoding="UTF-8" standalone="no"?>
<svg id="bcfe81c5-ae4c-4a38-986e-5074a0ea7159" data-name="Calque 1" xmlns="http://www.w3.org/2000/svg" xmlns:xlink="http://www.w3.org/1999/xlink" viewBox="0 0 141.73 141.73"><defs><linearGradient id="ead6d1d1-8b75-4d26-bec1-416c6d3f493c" x1="367.7" y1="3121.19" x2="474" y2="3032.15" gradientTransform="matrix(1, 0, 0, -1, -349.97, 3147.54)" gradientUnits="userSpaceOnUse"><stop offset="0" stop-color="#fff"/><stop offset="0.1" stop-color="#eeedec"/><stop offset="0.1" stop-color="#d6d7d7"/><stop offset="0.2" stop-color="#bfc1c3"/><stop offset="0.2" stop-color="#aeb2b4"/><stop offset="0.3" stop-color="#a3a8ab"/><stop offset="0.3" stop-color="#a0a5a8"/><stop offset="0.4" stop-color="#8b8e93"/><stop offset="0.5" stop-color="#6b7378"/><stop offset="0.6" stop-color="#585e65"/><stop offset="0.7" stop-color="#4c5359"/><stop offset="0.8" stop-color="#484f56"/><stop offset="1" stop-color="#4c5359"/></linearGradient><linearGradient id="bf8b3bd3-8b1c-42bb-a88f-aed4b02cc702" x1="370.96" y1="3118.62" x2="470.61" y2="3034.9" gradientTransform="matrix(1, 0, 0, -1, -349.97, 3147.54)" gradientUnits="userSpaceOnUse"><stop offset="0" stop-color="#1b242b"/><stop offset="0.2" stop-color="#3a4249"/><stop offset="0.5" stop-color="#7e8287"/><stop offset="0.5" stop-color="#888d91"/><stop offset="0.7" stop-color="#bdbebe"/><stop offset="0.8" stop-color="#dadbda"/><stop offset="0.8" stop-color="#e5e6e4"/><stop offset="1" stop-color="#fdfdff"/></linearGradient><linearGradient id="bfe74cf2-363a-4119-815a-db695f7c0e43" x1="1974.46" y1="-329.1" x2="2022.96" y2="-462.41" gradientTransform="matrix(-1, 0, 0, 1, 2069.56, 466.54)" gradientUnits="userSpaceOnUse"><stop offset="0" stop-color="#e8e9e8"/><stop offset="0.1" stop-color="#cacbcb"/><stop offset="0.3" stop-color="#a3a6a6"/><stop offset="0.5" stop-color="#85888a"/><stop offset="0.7" stop-color="#6e7376" stop-opacity="0"/><stop offset="0.8" stop-color="#60666b" stop-opacity="0"/><stop offset="1" stop-color="#5c6368" stop-opacity="0"/></linearGradient><linearGradient id="a54be174-1bb8-4317-a210-257dc1494105" x1="390.29" y1="3129.59" x2="451.41" y2="3023.74" gradientTransform="matrix(1, 0, 0, -1, -349.97, 3147.54)" xlink:href="#bfe74cf2-363a-4119-815a-db695f7c0e43"/><linearGradient id="e392501e-99cc-4b95-b186-4c21d54271ad" x1="448.5" y1="3060.3" x2="444.74" y2="3054.09" gradientTransform="matrix(1, 0, 0, -1, -349.97, 3147.54)" gradientUnits="userSpaceOnUse"><stop offset="0" stop-color="#2f373d"/><stop offset="1" stop-color="#191d22" stop-opacity="0"/></linearGradient><linearGradient id="f9348ad0-9e47-495b-bc3a-5cbc375198ef" x1="437.64" y1="3083.07" x2="431.43" y2="3093.03" gradientTransform="matrix(1, 0, 0, -1, -349.97, 3147.54)" gradientUnits="userSpaceOnUse"><stop offset="0.1" stop-color="#191e23"/><stop offset="0.9" stop-color="#191e23" stop-opacity="0"/></linearGradient><linearGradient id="fc34ece0-ed10-4361-881e-f63d37830ca4" x1="420.81" y1="3067.07" x2="411.51" y2="3064.41" gradientTransform="matrix(1, 0, 0, -1, -349.97, 3147.54)" gradientUnits="userSpaceOnUse"><stop offset="0.2" stop-color="#191e23"/><stop offset="0.9" stop-color="#191e23" stop-opacity="0"/></linearGradient><linearGradient id="b64a577d-2ae4-4de6-86f9-f8bbeb3aaea4" x1="396.03" y1="3054.74" x2="394.7" y2="3058.06" gradientTransform="matrix(1, 0, 0, -1, -349.97, 3147.54)" gradientUnits="userSpaceOnUse"><stop offset="0" stop-color="#191e23"/><stop offset="0.1" stop-color="#191e23"/><stop offset="1" stop-color="#191e23" stop-opacity="0"/></linearGradient><linearGradient id="e4793fcf-f918-4f29-807a-d27498080208" x1="428.82" y1="3109.41" x2="421.3" y2="3108.53" gradientTransform="matrix(1, 0, 0, -1, -349.97, 3147.54)" gradientUnits="userSpaceOnUse"><stop offset="0.3" stop-color="#191e23"/><stop offset="0.8" stop-color="#191e23" stop-opacity="0"/></linearGradient><linearGradient id="b469ed10-5117-4522-a287-141ad466650b" x1="429.06" y1="3109.54" x2="423.97" y2="3108.87" gradientTransform="matrix(1, 0, 0, -1, -349.97, 3147.54)" gradientUnits="userSpaceOnUse"><stop offset="0.4" stop-color="#2f373d"/><stop offset="1" stop-color="#414950" stop-opacity="0"/></linearGradient><linearGradient id="bcef1b99-642e-46d5-9bed-2c49810f604c" x1="349.19" y1="3074.83" x2="410.97" y2="3039.17" gradientTransform="matrix(1, 0, 0, -1, -349.97, 3147.54)" gradientUnits="userSpaceOnUse"><stop offset="0" stop-color="#2d343c" stop-opacity="0"/><stop offset="0" stop-color="#2d353d" stop-opacity="0"/><stop offset="0.1" stop-color="#2f373d"/></linearGradient><linearGradient id="b786bf98-59fb-41db-a468-bfe8b7169de9" x1="420.74" y1="3064.71" x2="420.74" y2="3075.34" gradientTransform="matrix(1, 0, 0, -1, -349.97, 3147.54)" gradientUnits="userSpaceOnUse"><stop offset="0.3" stop-color="#aeb1b4"/><stop offset="1" stop-color="#aeb1b4" stop-opacity="0"/></linearGradient><linearGradient id="afa5b4ff-7c0b-45a9-9624-739bdbe73089" x1="455.51" y1="3142.44" x2="455.51" y2="3007.35" gradientTransform="matrix(1, 0, 0, -1, -349.97, 3147.54)" gradientUnits="userSpaceOnUse"><stop offset="0" stop-color="#e5e6e4"/><stop offset="0" stop-color="#cecfcd"/><stop offset="0" stop-color="#a6a8a9"/><stop offset="0" stop-color="#8a8e8f"/><stop offset="0" stop-color="#787d80"/><stop offset="0" stop-color="#71767b"/><stop offset="0.2" stop-color="#3a4249"/><stop offset="0.5" stop-color="#2f373d"/><stop offset="0.8" stop-color="#3a4249"/><stop offset="1" stop-color="#484f56"/></linearGradient><linearGradient id="b4091e6a-22f8-487b-a288-526f7690d534" x1="476.85" y1="3129.61" x2="446.96" y2="3085.77" gradientTransform="matrix(1, 0, 0, -1, -349.97, 3147.54)" gradientUnits="userSpaceOnUse"><stop offset="0.7" stop-color="#2f373d"/><stop offset="0.7" stop-color="#323a41"/><stop offset="0.7" stop-color="#3d444c"/><stop offset="0.7" stop-color="#4d565d"/><stop offset="0.8" stop-color="#697076" stop-opacity="0"/><stop offset="0.8" stop-color="#8e9196" stop-opacity="0"/><stop offset="0.8" stop-color="#bbbcbe" stop-opacity="0"/><stop offset="0.8" stop-color="#e8eaeb" stop-opacity="0"/><stop offset="0.8" stop-color="#fff" stop-opacity="0"/></linearGradient></defs><title>74</title><path id="a15a38c0-edaf-4bce-b16d-e87a8f4237cc" data-name="outer" d="M140.19,70.87A69.32,69.32,0,1,1,70.88,1.55,69.27,69.27,0,0,1,140.19,70.87ZM70.88,5.76A65.11,65.11,0,1,0,136,70.87,64.93,64.93,0,0,0,70.88,5.76Z" style="fill:url(#ead6d1d1-8b75-4d26-bec1-416c6d3f493c)"/><path d="M70.88,5.76A65.11,65.11,0,1,0,136,70.87,64.93,64.93,0,0,0,70.88,5.76Zm0,126a60.9,60.9,0,1,1,60.9-60.9A60.87,60.87,0,0,1,70.88,131.77Z" style="fill:url(#bf8b3bd3-8b1c-42bb-a88f-aed4b02cc702)"/><path d="M70.88,140.18A69.32,69.32,0,1,0,1.56,70.87a69.27,69.27,0,0,0,69.32,69.31ZM70.88,0A70.87,70.87,0,1,1,0,70.87,71.07,71.07,0,0,1,70.88,0Z" style="opacity:0.4;isolation:isolate;fill:url(#bfe74cf2-363a-4119-815a-db695f7c0e43)"/><path d="M4.88,71.09c0-36.32,29.45-66.22,66-66.22h0a66.07,66.07,0,0,1,66,66.22h0a65.82,65.82,0,0,1-66,65.77h0a65.82,65.82,0,0,1-66-65.77Zm20.6-45.62a64.44,64.44,0,0,0-19,45.62h0a64.33,64.33,0,0,0,18.82,45.4h0a65.26,65.26,0,0,0,45.63,18.82h0a63.38,63.38,0,0,0,45.39-18.82h0a63.39,63.39,0,0,0,18.83-45.4h0a65.18,65.18,0,0,0-18.83-45.62h0a63.54,63.54,0,0,0-45.39-19h0a63.54,63.54,0,0,0-45.4,19Z" style="fill:#fff"/><path d="M70.88,132A61.07,61.07,0,0,1,27.69,27.68a61.07,61.07,0,1,1,86.37,86.37A60.63,60.63,0,0,1,70.88,132Zm0-1.77A59.13,59.13,0,1,0,29,29.23,57.59,57.59,0,0,0,11.53,70.87a59.36,59.36,0,0,0,59.35,59.35Z" style="opacity:0.4;isolation:isolate;fill:url(#a54be174-1bb8-4317-a210-257dc1494105)"/><path d="M124.69,99.66,80.84,64.89,70.88,8a3.78,3.78,0,0,0-2,1.77L61.8,65.11,17.73,99s-.89,1.11-1.33,1.77a4.19,4.19,0,0,0-.23,1.77h0L70.65,80.17l54.48,22.36h0A3.13,3.13,0,0,0,124.69,99.66Z" style="fill:#fff"/><path d="M71.32,72.64l-.44,10.19,50,20.15a4,4,0,0,0,4.43-.45L72,72.42A.42.42,0,0,0,71.32,72.64Z" style="fill:#5b6166"/><path d="M71.32,72.64a53.27,53.27,0,0,0,6.2,8.64,51.12,51.12,0,0,0,10.85,8.63L120.92,103a4,4,0,0,0,4.43-.45L72,72.42A.42.42,0,0,0,71.32,72.64Z" style="fill:url(#e392501e-99cc-4b95-b186-4c21d54271ad)"/><path d="M125.13,100.54c0-.22-.22-.44-.44-.88L79.07,66.22l-6.2,4s.44.22.66,0a5.57,5.57,0,0,1,3.32,0c1.11.44,48.28,30.56,48.28,30.56Z" style="fill:#adb1b4;fill-opacity:0.6000000000000001"/><path d="M123.58,98.55,81.06,64.89h0l-2,1.33,45.62,33.66A5.72,5.72,0,0,0,123.58,98.55Z" style="fill:#3b4048"/><path d="M72,69.32l-.22.22s0,.44.44.22c.23-.22,6.65-3.54,8.86-4.87L73.31,11.74a3.87,3.87,0,0,0-2.66-3.55l.89,61.57Z" style="fill:#5b6166"/><path d="M68.22,11.74v2.88L63.35,63.56a2,2,0,0,0,.88,1.77l2.88,2.21,2-54,.22-4.21C68.66,9.74,68.44,10.63,68.22,11.74Z" style="fill:#adb1b4;fill-opacity:0.6000000000000001"/><path d="M65.56,68.43,62.9,66.22,18,98.77s-1.33.89-1.55,1.77h0L18,99.66h0L65.12,70C66,69.54,66.22,69.09,65.56,68.43Z" style="fill:#adb1b4;fill-opacity:0.6000000000000001"/><path d="M70.21,72.64c0-.22-.22-.45-.44-.22l-53.6,30.34a4.48,4.48,0,0,0,4.43.44L70.65,83.05Z" style="fill:#5b6166"/><path d="M71.76,69.54l.22-.22-.22.22h0a.22.22,0,0,0,.22.22h.22c.23-.22,6.65-3.54,8.86-4.87l-.88-6.43h0L73.31,11.74a2.74,2.74,0,0,0-.66-2S76,54.48,76,59.35A14.47,14.47,0,0,1,71.76,69.54Z" style="fill:url(#f9348ad0-9e47-495b-bc3a-5cbc375198ef)"/><path d="M70.21,72.64c0-.22-.22-.45-.44-.22l-53.6,30.34a4.48,4.48,0,0,0,4.43.44L70.65,83.05Z" style="fill-opacity:0.8;fill:url(#fc34ece0-ed10-4361-881e-f63d37830ca4)"/><path d="M20.6,103,70.65,82.83l-.44-9.75a12.7,12.7,0,0,1-6.64,7.75h0c-3.1,1.77-32.78,16.39-43.41,21.48a13.07,13.07,0,0,1-2,.89A2.43,2.43,0,0,0,20.6,103Z" style="opacity:0.8;isolation:isolate;fill:url(#b64a577d-2ae4-4de6-86f9-f8bbeb3aaea4)"/><path d="M72,69.32l-.22.22s0,.44.44.22c.23-.22,6.65-3.54,8.86-4.87L73.31,11.74a3.87,3.87,0,0,0-2.66-3.55l.89,61.57Z" style="fill:url(#e4793fcf-f918-4f29-807a-d27498080208)"/><path d="M72,69.32l-.22.22s0,.44.44.22c.23-.22,6.65-3.54,8.86-4.87L73.31,11.74a3.87,3.87,0,0,0-2.66-3.55l.89,61.57Z" style="fill:url(#b469ed10-5117-4522-a287-141ad466650b)"/><path d="M11.3,98.33c-1.55-3.55-10.41-20.82-.66-54H6.87c-2,6.65-3.54,10.63-4.42,16.61,0,0-.45,2.22-.67,4.65a50.84,50.84,0,0,0-.22,5.32c0,13.28,3.32,21,3.32,21A64.64,64.64,0,0,0,23,120.47c7.31,6.42,18.6,11.3,27.9,13.07C49.39,133.32,22.82,122,11.3,98.33Z" style="fill:url(#bcef1b99-642e-46d5-9bed-2c49810f604c)"/><path d="M71.76,72.19h-2c.22,0,.44,0,.44.23l.44,10.18h.23l.44-10.18c0-.23.22-.45.44-.23Z" style="fill:url(#b786bf98-59fb-41db-a468-bfe8b7169de9)"/><path d="M93,5.09c23.25,8.86,45.18,33.22,45.18,64a67.2,67.2,0,0,1-67.32,67.55v3.54c37.64,0,69.31-31,69.31-69.31A69.36,69.36,0,0,0,93,5.09Z" style="fill:url(#afa5b4ff-7c0b-45a9-9624-739bdbe73089)"/><path d="M130.22,44.73C114.72,9.08,79.73,7.09,77.74,6.87h-.22c26.79,4.87,43.85,22.36,49.83,40.74v.22a69.71,69.71,0,0,1,4.2,22.81A60.48,60.48,0,0,1,126.68,95c-.22,1.1-.44,2.43-.66,2.43h3.54C140.19,77.51,135.54,57.36,130.22,44.73Z" style="fill:url(#b4091e6a-22f8-487b-a288-526f7690d534)"/><path d="M4.88,71.09c0-36.32,29.45-66.22,66-66.22h0a66.07,66.07,0,0,1,66,66.22h0a65.82,65.82,0,0,1-66,65.77h0a65.82,65.82,0,0,1-66-65.77Zm20.6-45.62a64.44,64.44,0,0,0-19,45.62h0a64.33,64.33,0,0,0,18.82,45.4h0a65.26,65.26,0,0,0,45.63,18.82h0a63.38,63.38,0,0,0,45.39-18.82h0a63.39,63.39,0,0,0,18.83-45.4h0a65.18,65.18,0,0,0-18.83-45.62h0a63.54,63.54,0,0,0-45.39-19h0a63.54,63.54,0,0,0-45.4,19Z" style="fill:#fdfdff"/><path d="M17.5,99.21h0L62.68,66.66a45.51,45.51,0,0,0,6.87,3.1c.44.22.44-.22.44-.22l-5.54-4.65a2,2,0,0,1-.88-1.77L68.88,9.74c-.22.23-.22.67-.44.89a2,2,0,0,0-.22,1.11L60.47,65.11,18,98.55C17.73,98.77,17.5,99,17.5,99.21Z" style="fill:#3a4249"/></svg>