<?xml version="1.0" encoding="UTF-8" standalone="no"?>
<svg id="aea87c06-8756-4873-abf7-9b76e725eb90" data-name="Calque 1" xmlns="http://www.w3.org/2000/svg" viewBox="0 0 141.73 141.73"><title>84</title><path d="M125,72A54.15,54.15,0,0,0,18.23,59.19L0,59.39v9.76l16.76.69a16.5,16.5,0,0,0-.1,2.17A54.23,54.23,0,0,0,123.5,85.12l18.23-.2V75.26l-16.85-.69A22,22,0,0,0,125,72ZM70.87,120A48,48,0,0,1,23,72V70.13l35.67,1.58L40.11,86,117,85.12A47.89,47.89,0,0,1,70.87,120Zm47.9-45.63L83.09,72.79l19-14.48-77.37.88a47.89,47.89,0,0,1,94,12.82Z" style="fill:#12110b"/></svg>