<?xml version="1.0" encoding="UTF-8" standalone="no"?>
<svg id="Calque_1" data-name="Calque 1" xmlns="http://www.w3.org/2000/svg" viewBox="0 0 150 150"><defs><style>.cls-1{fill:#010101;}.cls-2{fill:#fff;}</style></defs><g id="Logo"><path class="cls-1" d="M75,.17,140.19,41.5c-1.45,26.55-7.27,47.12-18.34,64.73A111.13,111.13,0,0,1,75,147.31,111,111,0,0,1,28.2,106.23C17.13,88.61,11.3,68.05,9.86,41.5c-.47-8.68-.47-19.58,0-33.28A396.59,396.59,0,0,1,75,2.77a397.66,397.66,0,0,1,65.16,5.45C140.66,21.92,140.66,32.82,140.19,41.5Z"/><path class="cls-2" d="M43.52,91.47a.56.56,0,0,1-.73-.43c-.18-.8-.63-3.52-.76-4.32a.61.61,0,0,1,.45-.81c1.94-.63,5.21-1.73,7.84-2.66a2.08,2.08,0,0,0,1.27-1.11c1.1-1.75,3.8-6.52,5.08-9a1.1,1.1,0,0,0,0-1.11l-.58-1a2,2,0,0,0-1-.78c-2.67-.68-6.2-1.55-7.87-2a2.23,2.23,0,0,0-1.12,0l-.31.1c2.57.87,4.75,1.65,7.51,2.71a1.07,1.07,0,0,1,.57.61l.26.83a1.39,1.39,0,0,1-.09,1A46.07,46.07,0,0,1,49.11,81a2.14,2.14,0,0,1-.91.66c-1.57.59-4.43,1.53-5.68,1.85a.59.59,0,0,1-.57-.11c-.9-.63-2.77-2.39-2.77-2.39S39,82.87,39,83.72a.66.66,0,0,0,.05.28c.32.75.88,2.18,1.12,2.9.07.2.11.36.16.55.31,1.25,1.18,4.94,1.18,4.94.13.56.44.75.94.65s2.67-.71,3.5-1a.9.9,0,0,0,.34-.2l1.44-1.33S44.67,91.25,43.52,91.47Z"/><path class="cls-2" d="M48.12,80.15A47.55,47.55,0,0,0,51.69,75l-8.5,7c1.39-.43,3.28-1.07,4.41-1.49A1.24,1.24,0,0,0,48.12,80.15Z"/><path class="cls-2" d="M48.32,51.92l-1.51.13a.24.24,0,0,0-.23.23l-.14,1.8a.14.14,0,0,0,.17.15l1.53-.35a.74.74,0,0,0,.48-.38,1.79,1.79,0,0,0,.05-1.38A.32.32,0,0,0,48.32,51.92Z"/><path class="cls-2" d="M33.52,74.49l2.31,2.71.68-4.68A4.05,4.05,0,0,0,33.52,74.49Z"/><path class="cls-2" d="M108.76,74A101.25,101.25,0,0,0,97.27,59.88a2.25,2.25,0,0,0-.75-.52l-1-.42S97.26,66.4,98,70.47a2.52,2.52,0,0,0,.73,1.37,44,44,0,0,1,5.79,6.75,6.31,6.31,0,0,1,1.07,3.12,104.3,104.3,0,0,1-.46,18.59,2.2,2.2,0,0,1-1,1.73c-5.67,4.59-15,12.66-19.08,16.65a5,5,0,0,0-.83,1,20.59,20.59,0,0,0-1.1,2A34.68,34.68,0,0,1,82,117.13a5.17,5.17,0,0,1,0-1.71,116.53,116.53,0,0,1,3.27-12.5,1.19,1.19,0,0,0,0-.32v-.75c-.87,1.82-5.32,11.83-6.26,15.27a2.1,2.1,0,0,0,0,1.55c.58,1.66,2.26,5.77,3,7.46,0,0,1.83-3.43,2.89-5.16a5.84,5.84,0,0,1,1.08-1.3c3.16-2.93,14.55-12.44,19.87-16.43a2.6,2.6,0,0,0,1.12-1.66,73.61,73.61,0,0,0,2-26.58A3,3,0,0,0,108.76,74Z"/><path class="cls-2" d="M85.44,50a1.93,1.93,0,0,0,.22-1.25c-.18-1-.45-2.24-.66-3.16a.57.57,0,0,0-.32-.39l-1.61-.77a1.14,1.14,0,0,0-.68-.09c-3.87.68-7.94,1.48-11,2.18a.93.93,0,0,0-.6.44l-1,1.67a.22.22,0,0,0,.14.32c.81.15,2.46.44,3,.52a1.11,1.11,0,0,0,.75-.08c2-.8,5.15-2,7.52-2.91a.92.92,0,0,1,.59,0l1.08.35a.67.67,0,0,1,.38.3l.8,1.48a1,1,0,0,1-.17,1c-.81,1.17-2.18,3-3.13,4.15a1,1,0,0,0-.19.91c.56,1.91,1.77,5.86,2.41,7.75a1.44,1.44,0,0,0,.37.57l.91.83s-1.44-6.68-1.79-8.59a1.15,1.15,0,0,1,.14-.85C83.41,53.2,84.77,51.12,85.44,50Z"/><path class="cls-2" d="M120,55.45a1.51,1.51,0,0,0-.69-1,99.58,99.58,0,0,0-16.77-9.75,2.57,2.57,0,0,0-1.87,0c-2.22.81-5.75,2.3-9.42,4,0,0,1.61.12,2.39.21a1.8,1.8,0,0,0,.92-.07c1.13-.3,3.13-.8,4.71-1.15a2.66,2.66,0,0,1,2.2.47c2.16,1.6,5.64,4.4,7.86,6.27a4.55,4.55,0,0,0,1.29.77c3.39,1.36,4.88,2,5.63,2.42a2.1,2.1,0,0,1,1.07,1.35,83,83,0,0,1,1.77,12.36,4.79,4.79,0,0,1-.27,2,62.31,62.31,0,0,1-4.65,9.32,2,2,0,0,1-.47.53c-.47.41-1.3,1.07-1.9,1.54a.5.5,0,0,0-.2.38c0,1.45-.29,4.27-.29,4.27a82.48,82.48,0,0,0,9.08-15,2.83,2.83,0,0,0,.36-1.15A61,61,0,0,0,120,55.45Z"/><path class="cls-2" d="M76.86,128.35c-.76-1.72-4.74-11.14-5.81-14.74a5.8,5.8,0,0,1-.28-3.06c.9-8.86,4.08-23,4.58-24.88a1.67,1.67,0,0,0,0-.94c-.13-.73-.56-3.26-.56-3.26-1.44,3.33-6.56,17.1-8.45,25.2a3.74,3.74,0,0,0,0,2.77,189.77,189.77,0,0,0,10.93,21.71L77,128.93A1.67,1.67,0,0,0,76.86,128.35Z"/><path class="cls-2" d="M70.7,128.89l-2-1.29a5,5,0,0,1-.87-.66c-3.15-2.85-14.2-16.44-17.52-22.35a3.68,3.68,0,0,1-.66-2.45c.06-1.13.28-3.34.5-4.62a3,3,0,0,1,1-2c1.87-1.71,4.91-4.76,6.5-6.37a7.05,7.05,0,0,0,1.41-1.85C60.55,84.62,65,75,66.48,71a2.49,2.49,0,0,0,.18-1.63c-.29-2.08-1.94-7.45-1.94-7.45l-.14,1.8a1.51,1.51,0,0,0,0,.37,39.45,39.45,0,0,1,.62,5.44,2.35,2.35,0,0,1-.32,1.33c-2.23,4.39-11,16.1-16.45,22.44a3.68,3.68,0,0,0-1,2c-.29,1.34-.61,4.39-.82,6.82a4.06,4.06,0,0,0,.81,3.13c3.32,5.52,14.63,18.75,18.32,21.81a4.66,4.66,0,0,0,.78.53c1.3.7,4.85,2.45,4.85,2.45l-.55-1A1,1,0,0,0,70.7,128.89Z"/><path class="cls-2" d="M54.27,50.1l7-2.19a1.71,1.71,0,0,0,1-.79L66,40.68a.23.23,0,0,0-.2-.35l-3.2,0a3.09,3.09,0,0,0-.9.15,71.28,71.28,0,0,0-9,3.86,2.31,2.31,0,0,0-.67.57l-3.38,4.16a1,1,0,0,1-.41.31l-2.19.93a.49.49,0,0,0-.24.23l-.1.23s4.62-.15,6.18-.27A9.47,9.47,0,0,0,54.27,50.1Z"/><path class="cls-2" d="M67.14,34.9c8.84-.66,19-.48,21.48-.42a3.88,3.88,0,0,1,1.07.19l1.81.6c-4.44.23-15.16,1.19-19.5,1.93l1.52.24a1.88,1.88,0,0,0,.33,0c3.21-.2,9.5-.4,12.26-.44a3.75,3.75,0,0,1,1.71.31c1.6.61,4.83,2.08,6.16,2.75a4.11,4.11,0,0,0,1.89.5c1.45.06,3.65.22,5.28.38a3.8,3.8,0,0,1,1.27.38,102.53,102.53,0,0,1,10.11,5.93,1.44,1.44,0,0,0,.53.21l1.36.27s-4.35-4.45-6.07-6a5.61,5.61,0,0,0-.8-.58A168.36,168.36,0,0,0,92,33.1a5.39,5.39,0,0,0-1.65-.4,183.35,183.35,0,0,0-28.26.11,1.64,1.64,0,0,0-1.25.69c-.31.44-.8,1.23-1.25,2a4.13,4.13,0,0,1-.81,1c-1.4,1.22-3.74,3.19-5.23,4.32l-.3.21c-.62.43-2.67,1.79-3.05,2a1,1,0,0,0-.28.26l-.73.94c6.16-3.47,14-7.82,16.72-9A4.6,4.6,0,0,1,67.14,34.9Z"/><path class="cls-2" d="M38.33,54.47a1,1,0,0,1-.28.27c-5.49,3.92-8.57,6.41-9.79,7.44-.49.48-1,1-1.4,1.4s-.48.55-.51.87,0,.63,0,.84a.5.5,0,0,0,.1.31c.08.12.51.6.61.71a.14.14,0,0,0,.18,0c.81-.57,2-1.42,3-2.2a1.78,1.78,0,0,0,.29-.32c.18-.3.41-.73.54-1a.75.75,0,0,1,.35-.38l.83-.53a20,20,0,0,1-.8,2.59,1.64,1.64,0,0,1-.31.48c-.81.85-2.28,2.49-3,3.38a.81.81,0,0,0,0,1A35.58,35.58,0,0,0,31,73a2.36,2.36,0,0,0,.63.53,3.66,3.66,0,0,0,.59.28s.71-3.36,1-4.41A1,1,0,0,1,34,68.6c3.6-.89,11.38-2.19,11.38-2.19-.82-1-3.56-3.79-4.38-4.51a1.42,1.42,0,0,0-.81-.35c-1-.12-4.3-.36-4.3-.36l.5-.53a1.26,1.26,0,0,1,.57-.37c4-1.4,9.42-3.43,12.57-4.75a3.83,3.83,0,0,0,1.56-1c.24-.25.72-.78,1-1.11a.35.35,0,0,0,.1-.2c0-.1,0-.28,0-.28s-1.34,1-1.87,1.38a3.8,3.8,0,0,1-1.38.65c-1.12.29-3.19.78-4.44,1.06a1.25,1.25,0,0,1-.81,0c-.2-.07-.57-.23-.8-.33a.77.77,0,0,0-.61-.07c-1.1.25-4.1,1-4.1,1s1.38-1.23,1.49-1.31a1.27,1.27,0,0,1,.41-.22c1-.42,2.33-.88,3.41-1.32a.5.5,0,0,0,.37-.46c.07-.84.31-2.34.45-3.13a.7.7,0,0,1,.29-.49l3.52-2.7.1-.1.64-.77c-1.67,1-4.63,2.72-6.16,3.68a17.78,17.78,0,0,0-1.62,1.14,1.7,1.7,0,0,0-.19.19C40.55,51.57,38.91,53.69,38.33,54.47Z"/><path class="cls-2" d="M142.69,5.84a395.21,395.21,0,0,0-135.38,0C7,15.08,6.58,29.35,7.23,41.47c1.47,27,7.42,48,18.74,66A114.48,114.48,0,0,0,75,150a114.27,114.27,0,0,0,49-42.55c11.31-18,17.26-39,18.74-66C143.43,29.35,143,15.08,142.69,5.84Zm-2.52,35.49c-1.45,26.55-7.27,47.12-18.34,64.73A111.16,111.16,0,0,1,75,147.14a111.09,111.09,0,0,1-46.83-41.08C17.11,88.45,11.28,67.88,9.84,41.33c-.47-8.68-.47-19.57,0-33.28A396.47,396.47,0,0,1,75,2.6a397.69,397.69,0,0,1,65.17,5.45C140.64,21.76,140.64,32.65,140.17,41.33Z"/><path class="cls-2" d="M72.24,22.12c-2.28,0-3.43-.38-3.43-2.59V15.4c0-2.06,1-2.74,3.12-2.75,3,0,6,0,9,0v1.53c-3.2,0-6.41-.05-9.61,0a.9.9,0,0,0-.87.82v4.74a.92.92,0,0,0,.87.86q4.32,0,8.62,0V18.05c-1.67,0-3.33,0-5,0V16.5c2.21,0,4.43,0,6.63.05v5.61C78.45,22.11,75.35,22.09,72.24,22.12Z"/><path class="cls-2" d="M29,15q-4.8.49-9.6,1.11v9.47l1.66-.21V22.47c2.65-.33,5.29-.63,7.94-.91,1.92-.2,3-1,3-3V17.51C32,15.57,31,14.83,29,15Zm1.36,4.11a1,1,0,0,1-.86.85q-4.21.44-8.44,1V17.46q4.23-.53,8.44-.95a.77.77,0,0,1,.86.72Z"/><path class="cls-2" d="M47.78,15V13.47q-6,.38-12,.9v9.47c4-.36,8-.65,12-.9V21.41c-3.47.22-6.94.47-10.41.77V19.62c3.08-.26,6.18-.49,9.26-.69V17.4q-4.64.3-9.26.7V15.76C40.84,15.47,44.31,15.21,47.78,15Z"/><path class="cls-2" d="M97.7,14.74V13.22q-6-.32-12.06-.46v9.47c4,.09,8,.25,12.06.45V21.16c-3.47-.18-7-.31-10.43-.41V18.19c3.1.09,6.19.2,9.28.35V17q-4.64-.22-9.28-.35V14.33Q92.49,14.48,97.7,14.74Z"/><path class="cls-2" d="M55.3,22.54c-2.13.1-3.43-.31-3.43-2.45V13.24l1.63-.08v7.13a.8.8,0,0,0,.87.77c2.61-.12,5.24-.22,7.86-.29a.83.83,0,0,0,.82-.84V12.8l1.67,0v6.85c0,2.16-1.14,2.64-3.43,2.71C59.29,22.38,57.3,22.45,55.3,22.54Z"/><path class="cls-2" d="M104.29,15.13a.79.79,0,0,0-.87.81v4.68a1,1,0,0,0,.87.93c2.7.17,5.41.38,8.1.61a.84.84,0,0,0,.87-.79V16.69a1,1,0,0,0-.87-.94C109.7,15.52,107,15.31,104.29,15.13Zm.93,8c-2.27-.15-3.43-.59-3.43-2.84V16.08c0-2.13,1.06-2.56,3.43-2.4,2.08.14,4.17.29,6.25.47s3.42.75,3.42,2.92v4.22c0,2.13-1.18,2.51-3.42,2.33C109.39,23.43,107.3,23.28,105.22,23.14Z"/><path class="cls-2" d="M130.56,16.13c-4.21-.53-8.43-1-12.65-1.41v1.52q2.76.27,5.53.58v7.94l1.67.18V17q2.73.32,5.46.66C130.56,17.15,130.56,16.64,130.56,16.13Z"/></g></svg>