<?xml version="1.0" encoding="UTF-8" standalone="no"?>
<svg id="bd3f4d59-a0b1-42cc-9827-ccc8c4e165d4" data-name="Calque 1" xmlns="http://www.w3.org/2000/svg" viewBox="0 0 141.73 141.73"><title>121</title><path d="M70.87,135.21c-35.3,0-64.21-29.05-64.21-64.34a63,63,0,0,1,4.11-22.54l37.56,75.54a2.32,2.32,0,0,0,4.54,0L70.16,85.18c.14-.42.42-.85.85-.85s.56.43.85.85l17.29,38.69a2.32,2.32,0,0,0,4.54,0l37.55-75.54a62.82,62.82,0,0,1,4.11,22.54C135.07,106.16,106.16,135.21,70.87,135.21Zm0-78.94c-.43,0-.57-.43-.85-.85L49.89,10.06a61.62,61.62,0,0,1,42,0L71.72,55.42C71.43,56,71.29,56.27,70.87,56.27ZM50.31,102.9c-.42,0-.56-.43-.85-.85L16.87,36.28A65.12,65.12,0,0,1,40,14.6L63.5,66.9A1.64,1.64,0,0,0,65.2,68H76.54a1.66,1.66,0,0,0,1.84-1.13l23.53-52.3A66.39,66.39,0,0,1,125,36.28L92.13,102.05c-.15.42-.43.85-.85.85s-.57-.43-.85-.85L78.09,74a1.65,1.65,0,0,0-1.84-1.13H64.91A1.66,1.66,0,0,0,63.07,74l-11.9,28.07C51,102.47,50.74,102.9,50.31,102.9Zm20.56,38.83A70.87,70.87,0,1,0,0,70.87,70.7,70.7,0,0,0,70.87,141.73Z" style="fill:#001e50"/></svg>